<svg width="17" height="17" viewBox="0 0 17 17" fill="none" xmlns="http://www.w3.org/2000/svg">
    <path d="M8.5 0a8.5 8.5 0 1 0 0 17 8.5 8.5 0 0 0 0-17zm.536 12.673a.907.907 0 0 1-.629.247.855.855 0 0 1-.628-.258.845.845 0 0 1-.258-.618.793.793 0 0 1 .258-.618.856.856 0 0 1 .628-.247.866.866 0 0 1 .64.247.794.794 0 0 1 .257.618.866.866 0 0 1-.268.639v-.01zm1.751-4.74c-.325.335-.67.652-1.03.948-.212.17-.384.385-.505.629-.133.246-.2.523-.196.803v.206H7.768v-.206c-.014-.399.071-.795.248-1.154a6.264 6.264 0 0 1 1.36-1.524l.206-.227c.21-.248.33-.56.34-.886a1.401 1.401 0 0 0-.392-.948 1.401 1.401 0 0 0-1.03-.36 1.35 1.35 0 0 0-1.185.525 2.06 2.06 0 0 0-.33 1.236H5.75a2.823 2.823 0 0 1 .763-2.06 2.833 2.833 0 0 1 2.112-.773 2.73 2.73 0 0 1 1.937.587 2.174 2.174 0 0 1 .731 1.741 2.349 2.349 0 0 1-.505 1.474v-.01z" fill="#606479"/>
</svg>
