<svg width="18" height="19" viewBox="0 0 18 19" fill="none" xmlns="http://www.w3.org/2000/svg">
    <path d="M15.825 10.142c.044-.307.088-.615.088-.966s-.044-.659-.088-.966l1.976-1.405a.473.473 0 0 0 .131-.615l-1.931-3.248c-.132-.22-.352-.308-.571-.176l-2.195 1.01a7.87 7.87 0 0 0-1.669-.966l-.22-2.415C11.304.175 11.128 0 10.909 0H7.132c-.22 0-.44.176-.44.395L6.474 2.81c-.614.263-1.185.57-1.668.966L2.61 2.766c-.22-.088-.483 0-.57.176L.15 6.19a.473.473 0 0 0 .132.615L2.259 8.21a6.576 6.576 0 0 0-.088.966c0 .351.044.659.088.966L.195 11.547a.473.473 0 0 0-.132.614l1.888 3.25c.132.219.352.307.571.175l2.195-1.01a7.867 7.867 0 0 0 1.669.966l.22 2.415c.043.22.219.395.438.395h3.776c.22 0 .439-.176.439-.395l.22-2.415c.614-.263 1.185-.57 1.668-.966l2.195 1.01c.22.088.483 0 .57-.176l1.889-3.249a.472.472 0 0 0-.132-.614l-1.844-1.405zm-6.85 3.424a4.403 4.403 0 0 1-4.39-4.39 4.403 4.403 0 0 1 4.39-4.39 4.403 4.403 0 0 1 4.391 4.39 4.403 4.403 0 0 1-4.39 4.39z" fill="#fff"/>
    <path d="M8.975 3.907c-2.897 0-5.268 2.371-5.268 5.269s2.37 5.268 5.268 5.268c2.898 0 5.269-2.37 5.269-5.268 0-2.898-2.37-5.269-5.269-5.269zm0 7.464A2.174 2.174 0 0 1 6.78 9.176c0-1.23.966-2.195 2.195-2.195 1.23 0 2.196.966 2.196 2.195 0 1.23-.966 2.195-2.196 2.195z" fill="#CDCBEB"/>
</svg>
