<svg width="17" height="20" viewBox="0 0 17 20" fill="none" xmlns="http://www.w3.org/2000/svg">
    <path d="m8.547 8.79 7.028-4.19a.225.225 0 0 0 0-.38L8.547.03a.208.208 0 0 0-.213 0L1.307 4.22a.225.225 0 0 0 0 .38l7.028 4.19a.207.207 0 0 0 .212 0zm.796 1.805v8.38a.225.225 0 0 0 .106.191.208.208 0 0 0 .213 0l7.028-4.19a.226.226 0 0 0 .106-.19V6.404a.225.225 0 0 0-.106-.19.208.208 0 0 0-.212 0l-7.029 4.19a.226.226 0 0 0-.106.19z" fill="#606479"/>
    <path d="M8.278 10.278.36 6.028a.254.254 0 0 0-.24 0 .232.232 0 0 0-.088.082.211.211 0 0 0-.032.112v8.5c0 .039.011.077.032.111a.232.232 0 0 0 .088.082l7.918 4.25a.254.254 0 0 0 .24 0 .232.232 0 0 0 .088-.081.211.211 0 0 0 .032-.112v-8.5a.212.212 0 0 0-.032-.112.233.233 0 0 0-.088-.082z" fill="#CDCBEB"/>
</svg>
