<svg width="18" height="14" viewBox="0 0 18 14" fill="none" xmlns="http://www.w3.org/2000/svg">
    <path d="m6.135 7.215.037.001h.037-.074z" fill="#606479"/>
    <path d="M10.372 4.992c0 .334.063.666.185.975.122.309.3.59.526.826.226.236.493.424.788.552a2.33 2.33 0 0 0 1.858 0c.294-.128.562-.316.787-.552.226-.237.405-.517.527-.826a2.653 2.653 0 0 0 0-1.95c-.122-.308-.301-.59-.527-.826a2.424 2.424 0 0 0-.787-.552 2.33 2.33 0 0 0-1.858 0 2.424 2.424 0 0 0-.788.552 2.559 2.559 0 0 0-.526.827c-.122.309-.185.64-.185.974zM12.867 8.413c1.555.012 3.17.96 4.073 2.215.04.057.08.114.118.172.318.482.556 1.023.705 1.589.076.292.387 1.442.148 1.683a.119.119 0 0 1-.02.017c-.173.112-.788.013-.954.013h-8.08c-.167 0-.782.1-.955-.013a.123.123 0 0 1-.02-.017c-.24-.24.072-1.391.148-1.683a5.375 5.375 0 0 1 .823-1.76c.902-1.256 2.518-2.204 4.074-2.216" fill="#CDCBEB"/>
    <path d="M3.117 3.079c0 .816.31 1.6.86 2.177s1.297.901 2.075.901c.779 0 1.525-.324 2.076-.901.55-.578.86-1.36.86-2.177s-.31-1.6-.86-2.177A2.868 2.868 0 0 0 6.052 0c-.778 0-1.525.324-2.075.902-.55.577-.86 1.36-.86 2.177zM6.539 12.73a7.026 7.026 0 0 1 1.074-2.301 7.2 7.2 0 0 1 2.09-1.91c-1.029-.777-2.295-1.284-3.532-1.303-1.87.028-3.806 1.17-4.89 2.677a6.5 6.5 0 0 0-.994 2.129c-.093.353-.468 1.744-.18 2.036a.149.149 0 0 0 .025.02c.209.135.953.016 1.154.016h4.967c.063-.53.227-1.14.286-1.364z" fill="#606479"/>
</svg>
