<svg width="18" height="18" viewBox="0 0 18 18" fill="none" xmlns="http://www.w3.org/2000/svg">
    <path d="M17.28 0H.72A.72.72 0 0 0 0 .72v16.56c0 .398.322.72.72.72h16.56a.72.72 0 0 0 .72-.72V.72a.72.72 0 0 0-.72-.72zm-.9 16.38H1.62V1.62h14.76v14.76z" fill="#606479"/>
    <path d="M1.62 16.38h14.76V1.62H1.62v14.76zM8.37 5.22a.18.18 0 0 1 .18-.18h4.14a.18.18 0 0 1 .18.18V6.3a.18.18 0 0 1-.18.18H8.55a.18.18 0 0 1-.18-.18V5.22zm0 3.24a.18.18 0 0 1 .18-.18h4.14a.18.18 0 0 1 .18.18v1.08a.18.18 0 0 1-.18.18H8.55a.18.18 0 0 1-.18-.18V8.46zm0 3.24a.18.18 0 0 1 .18-.18h4.14a.18.18 0 0 1 .18.18v1.08a.18.18 0 0 1-.18.18H8.55a.18.18 0 0 1-.18-.18V11.7zM6.03 4.86a.9.9 0 1 1 0 1.8.9.9 0 0 1 0-1.8zm0 3.24a.9.9 0 1 1 0 1.8.9.9 0 0 1 0-1.8zm0 3.24a.9.9 0 1 1 0 1.8.9.9 0 0 1 0-1.8z" fill="#E2E4F5" fill-opacity=".8"/>
    <path d="M5.13 12.24a.9.9 0 1 0 1.8 0 .9.9 0 0 0-1.8 0zm0-3.24a.9.9 0 1 0 1.8 0 .9.9 0 0 0-1.8 0zm0-3.24a.9.9 0 1 0 1.8 0 .9.9 0 0 0-1.8 0zm3.42 7.2h4.14a.18.18 0 0 0 .18-.18V11.7a.18.18 0 0 0-.18-.18H8.55a.18.18 0 0 0-.18.18v1.08c0 .099.081.18.18.18zm0-3.24h4.14a.18.18 0 0 0 .18-.18V8.46a.18.18 0 0 0-.18-.18H8.55a.18.18 0 0 0-.18.18v1.08c0 .099.081.18.18.18zm0-3.24h4.14a.18.18 0 0 0 .18-.18V5.22a.18.18 0 0 0-.18-.18H8.55a.18.18 0 0 0-.18.18V6.3c0 .099.081.18.18.18z" fill="#8B85E3"/>
</svg>
