<svg width="18" height="18" viewBox="0 0 18 18" fill="none" xmlns="http://www.w3.org/2000/svg">
    <path d="M8.938.002c-.16.008-.315.047-.459.116l-6.258 2.99a1.195 1.195 0 0 0-.647.805L.03 10.629a1.177 1.177 0 0 0 .23 1.004l4.332 5.386a1.196 1.196 0 0 0 .935.446l6.946-.001a1.205 1.205 0 0 0 .936-.446l4.33-5.386a1.184 1.184 0 0 0 .231-1.005l-1.546-6.716a1.183 1.183 0 0 0-.648-.805L9.518.118a1.205 1.205 0 0 0-.58-.116z" fill="#CDCBEB"/>
    <path d="M9 2.287c-.207 0-.375.187-.375.416v.107c.005.132.034.234.051.356.032.261.058.478.042.68a.409.409 0 0 1-.122.193l-.009.159A4.818 4.818 0 0 0 5.463 5.7a6.27 6.27 0 0 1-.135-.096c-.067.009-.135.03-.223-.022-.167-.113-.32-.268-.505-.456-.084-.09-.146-.175-.246-.262-.023-.02-.058-.046-.083-.066a.446.446 0 0 0-.261-.099.36.36 0 0 0-.299.132c-.129.162-.088.41.092.553l.006.004.077.062c.107.079.205.12.31.182.225.138.41.253.558.391.057.061.067.17.075.216l.12.107a4.847 4.847 0 0 0-.764 3.38l-.157.045c-.041.053-.1.137-.16.162-.194.061-.41.084-.672.11-.123.011-.23.005-.36.03-.028.005-.068.016-.1.023h-.003l-.005.002c-.221.054-.363.257-.317.457.045.2.26.321.483.273H2.9l.007-.003c.03-.007.07-.014.097-.022.128-.034.22-.084.336-.128.248-.09.453-.164.653-.193.083-.006.171.052.215.077l.163-.028a4.875 4.875 0 0 0 2.16 2.697l-.068.163c.025.063.052.149.034.212-.073.188-.198.387-.34.609-.068.103-.138.182-.2.3-.015.027-.034.07-.048.1-.096.206-.026.443.159.532.186.09.417-.005.517-.21v-.002c.015-.03.035-.068.047-.096.053-.121.071-.226.108-.343.1-.25.154-.51.29-.673.038-.045.099-.062.162-.079l.085-.153a4.84 4.84 0 0 0 3.456.009l.08.144c.064.02.134.031.191.116.103.174.172.38.257.63.038.117.056.221.11.343.011.027.031.066.046.096.1.207.331.302.517.212.185-.09.256-.326.16-.532-.015-.03-.034-.073-.05-.101-.061-.117-.131-.196-.2-.299-.142-.221-.26-.406-.332-.594-.03-.098.005-.158.029-.221-.015-.016-.045-.108-.063-.151a4.874 4.874 0 0 0 2.16-2.717l.16.028c.056-.037.108-.085.21-.077.2.029.404.103.652.192.115.044.208.095.336.13.027.007.066.013.097.02.003 0 .005.002.007.003h.006c.222.048.438-.073.483-.273.046-.2-.096-.403-.316-.457-.033-.007-.078-.02-.11-.025-.13-.025-.236-.019-.359-.029-.261-.027-.478-.05-.671-.11-.079-.03-.135-.124-.162-.163l-.151-.044a4.85 4.85 0 0 0-.78-3.37c.038-.036.112-.1.133-.12.005-.067 0-.138.07-.212.147-.138.333-.253.557-.391.106-.063.204-.103.311-.182.024-.018.057-.046.083-.067.18-.143.22-.39.092-.552-.13-.161-.38-.177-.559-.033-.026.02-.06.046-.083.066-.1.087-.163.172-.248.262-.184.187-.337.344-.505.457-.072.042-.178.027-.227.025l-.142.101A4.909 4.909 0 0 0 9.412 4.2a9.075 9.075 0 0 1-.008-.167c-.049-.047-.108-.087-.123-.188-.016-.201.011-.418.043-.679.017-.122.046-.224.051-.356v-.107c0-.23-.169-.416-.375-.416zm-.47 2.905-.11 1.965-.009.004a.33.33 0 0 1-.524.253l-.003.002-1.611-1.142A3.858 3.858 0 0 1 8.53 5.192zm.94 0c.851.105 1.64.491 2.243 1.082l-1.6 1.135-.006-.002a.33.33 0 0 1-.525-.252l-.001-.001-.112-1.962zM5.688 7.008l1.47 1.315v.008a.33.33 0 0 1-.13.568l-.002.006-1.886.544c-.096-.877.111-1.73.548-2.441zm6.611 0c.219.355.384.75.483 1.18.097.423.122.846.081 1.255l-1.895-.546-.001-.008a.33.33 0 0 1-.13-.567v-.004l1.462-1.31zM8.698 8.425H9.3l.374.468-.134.584-.541.26-.543-.26-.134-.585.375-.467zm1.932 1.602a.327.327 0 0 1 .076.006l.003-.004 1.95.33a3.863 3.863 0 0 1-1.561 1.961l-.757-1.829.002-.003a.33.33 0 0 1 .287-.46zm-3.276.008a.33.33 0 0 1 .299.46l.005.008-.749 1.81a3.878 3.878 0 0 1-1.556-1.948l1.933-.328.003.004a.333.333 0 0 1 .065-.006zm1.634.793a.328.328 0 0 1 .303.174h.006l.954 1.722a3.873 3.873 0 0 1-2.495-.002l.95-1.72h.002a.33.33 0 0 1 .28-.174z" fill="#fff" stroke="#fff" stroke-width=".25"/>
</svg>
