<svg width="17" height="17" viewBox="0 0 17 17" fill="none" xmlns="http://www.w3.org/2000/svg">
<g clip-path="url(#clip0_20_1899)">
<rect width="1200" height="1469" transform="translate(-436 -449)" fill="#F4F6F8"/>
<path d="M7.53223 10.0283L6.47293 8.96472L6.4375 8.92914L6.40208 8.96472L5.9968 9.37175L5.96166 9.40704L5.9968 9.44232L7.05625 10.5061L6.00877 11.5578L5.97362 11.5931L6.00878 11.6284L6.41419 12.0353L6.44961 12.0708L6.48503 12.0353L7.53223 10.9839L8.57942 12.0353L8.61485 12.0709L8.65027 12.0353L9.05555 11.6284L9.0907 11.5931L9.05555 11.5578L8.00808 10.5061L9.06765 9.44219L9.10279 9.4069L9.06765 9.37162L8.66237 8.96472L8.62695 8.92915L8.59152 8.96472L7.53223 10.0283Z" fill="#FF6060" stroke="#FF6060" stroke-width="0.1"/>
<circle cx="8.81782" cy="8.81782" r="7.36782" stroke="#FF6060" stroke-width="1.1"/>
<path fill-rule="evenodd" clip-rule="evenodd" d="M4.33555 8.17483L4.13605 8.015C4.06 7.94098 3.98394 7.82995 4.00296 7.71891C4.00296 7.60788 4.06 7.51535 4.11704 7.44133L4.40224 7.10823L4.74449 6.71962C4.80153 6.64559 4.91561 6.64559 5.01068 6.6641C5.21983 6.71962 5.46701 6.70111 5.6001 6.55307C5.65412 6.53992 5.68896 6.49877 5.72505 6.45613C5.73977 6.43874 5.7547 6.4211 5.77123 6.40502C5.8853 6.27549 6.01839 6.14596 6.15148 6.01643L6.15148 6.01642L6.1515 6.0164C6.129 5.98721 6.1065 5.96377 6.08517 5.94154C6.05242 5.90743 6.02242 5.87617 5.99939 5.83135C5.94235 5.73882 5.94235 5.62779 5.98038 5.53526C6.01215 5.44248 6.08375 5.37555 6.15081 5.31286L6.15081 5.31286L6.15081 5.31286L6.15081 5.31285C6.16401 5.30052 6.17703 5.28835 6.18953 5.27618C6.33213 5.13739 6.47949 4.9986 6.62685 4.85981C6.7742 4.72101 6.92156 4.58222 7.06416 4.44343L7.69161 3.83275C7.7078 3.817 7.72398 3.80087 7.74028 3.78463L7.74028 3.78463L7.74028 3.78463C7.83883 3.68644 7.94136 3.5843 8.07188 3.53666C8.20498 3.46264 8.33808 3.40712 8.49019 3.37011C8.58525 3.3331 8.66131 3.31459 8.75638 3.29609C9.09862 3.22207 9.42186 3.16655 9.7641 3.12954C9.79262 3.12954 9.82114 3.12491 9.84966 3.12029C9.87818 3.11566 9.90671 3.11103 9.93523 3.11103C9.9986 3.10486 10.062 3.09664 10.1254 3.08842C10.2521 3.07197 10.3789 3.05552 10.5056 3.05552C11 3.01851 11.4943 3 11.9887 3C11.9435 3.01758 11.8984 3.02681 11.8553 3.03563C11.8076 3.04536 11.7624 3.05459 11.7225 3.07402C11 3.3331 10.2965 3.6662 9.70706 4.16585L9.66903 4.20286C9.49791 4.3509 9.3458 4.51745 9.1937 4.684L9.19369 4.684L9.16877 4.71731C9.02323 4.91173 8.8653 5.12269 8.77539 5.3502C8.71835 5.49825 8.69934 5.6833 8.75638 5.83135C8.75638 5.86836 8.77539 5.90537 8.7944 5.92388C8.85548 6.02791 8.94109 6.10807 9.02168 6.18353L9.02171 6.18356L9.02179 6.18364C9.04151 6.2021 9.06093 6.22029 9.07961 6.23847C9.26975 6.21997 9.45988 6.27548 9.61199 6.42353C9.78312 6.59008 9.84016 6.81214 9.78312 7.03421L10.6197 7.84845C11.6655 8.88476 13.3957 10.5688 14.4415 11.5681C14.5175 11.6421 14.5556 11.7346 14.5556 11.8457C14.5556 11.9567 14.4985 12.0492 14.4225 12.1232C14.3393 12.2041 14.2562 12.2829 14.1739 12.361C14.0112 12.5152 13.8514 12.6668 13.6999 12.8264C13.6429 12.882 13.5668 12.9375 13.4908 12.9745C13.3387 13.03 13.1676 12.993 13.0725 12.882L10.2194 10.1051C10.0318 8.92899 9.02393 8.02643 7.80068 8.00246C7.67816 7.85003 7.63961 7.67344 7.6726 7.49685C7.59654 7.43208 7.52524 7.36268 7.45394 7.29329C7.38264 7.22389 7.31134 7.1545 7.23528 7.08973C7.19725 7.07122 7.15923 7.05272 7.1212 7.0157L6.7029 7.42283C6.55079 7.57087 6.53178 7.81144 6.60783 7.9965C6.62684 8.08903 6.64586 8.20006 6.5698 8.25558L6.46522 8.35737C6.17124 8.53396 5.91657 8.76929 5.71742 9.04712C5.68252 9.06154 5.64415 9.06982 5.6001 9.06982C5.52405 9.08833 5.42898 9.05132 5.35293 8.9958L5.33391 8.97729C5.05532 8.75134 4.65075 8.42729 4.33555 8.17483Z" fill="#FF6060"/>
</g>
<defs>
<clipPath id="clip0_20_1899">
<rect width="1200" height="1469" fill="white" transform="translate(-436 -449)"/>
</clipPath>
</defs>
</svg>
