<svg width="19" height="13" viewBox="0 0 19 13" fill="none" xmlns="http://www.w3.org/2000/svg">
    <g filter="url(#xnzr8vniqa)">
        <rect x="-10" y="-146.549" width="325" height="219" rx="8" fill="#fff" shape-rendering="crispEdges"/>
        <g filter="url(#gl3tz5568b)">
            <path d="M-9-134.349c0-3.921 0-5.881.763-7.378a7 7 0 0 1 3.06-3.059c1.496-.763 3.457-.763 7.377-.763h3.4c7.84 0 11.761 0 14.756 1.526a13.995 13.995 0 0 1 6.118 6.118C28-134.91 28-130.99 28-123.149v172.2c0 7.84 0 11.76-1.526 14.755a14 14 0 0 1-6.118 6.119C17.36 71.45 13.44 71.45 5.6 71.45H2.2c-3.92 0-5.88 0-7.378-.763a7 7 0 0 1-3.059-3.06C-9 66.132-9 64.172-9 60.252v-194.6z" fill="#FEFEFF"/>
        </g>
        <mask id="h8m254fj1c" maskUnits="userSpaceOnUse" x="0" y="-.477" width="19" height="14" fill="#000">
            <path fill="#fff" d="M0-.477h19v14H0z"/>
            <path d="M18.523 4.787a2.865 2.865 0 0 0-2.01-.42 3.196 3.196 0 0 0-1.308-1.811l-.376-.238-.27.362a3.033 3.033 0 0 0-.266 3.155 2.17 2.17 0 0 1-.897.252h-.302V4.203h-2.06V.523H8.548v1.84H4.473v1.839H2.435v1.885H1.102l-.063.432a5.79 5.79 0 0 0 1.16 4.2c1.09 1.31 2.832 1.974 5.178 1.974a9.196 9.196 0 0 0 3.882-.738 9.059 9.059 0 0 0 3.194-2.294 9.543 9.543 0 0 0 1.69-2.697c2.27-.04 2.578-1.598 2.59-1.665l.06-.326-.267-.186h-.003zM9.26 4.195V3.1h1.06v1.095H9.26zM5.185 6.033V4.94h1.059v1.094h-1.06zm2.038 0V4.94H8.28v1.094H7.223zm2.037 0V4.94h1.06v1.094H9.26zm2.06-1.094h1.058v1.094H11.32V4.94zM9.26 1.26h1.06v1.094H9.26V1.261zm-2.037 1.84H8.28v1.094H7.223V3.1zm-2.038 0h1.059v1.094h-1.06V3.1zM3.147 4.938h1.058v1.094H3.147V4.94zm4.226 6.74a7.475 7.475 0 0 1-2.841-.482 4.871 4.871 0 0 0 1.826-.786.521.521 0 0 0 .095-.685.485.485 0 0 0-.66-.141 4.59 4.59 0 0 1-2.61.743 3.146 3.146 0 0 1-.232-.255 4.614 4.614 0 0 1-.963-2.966h11.41a3.05 3.05 0 0 0 1.876-.738l.06-.056a8.13 8.13 0 0 1-3.097 3.95 8.345 8.345 0 0 1-4.861 1.42l-.003-.004zm8.454-5.735-.304-.015-.183-.252a2.197 2.197 0 0 1-.261-1.918c.322.319.507.748.513 1.198l-.02.72.663-.222a2.524 2.524 0 0 1 1.342-.02 2.09 2.09 0 0 1-1.75.509zm-8.246 2.06a.854.854 0 0 1 .479.12.834.834 0 0 1 .328.364.817.817 0 0 1-.157.916.847.847 0 0 1-.923.198.84.84 0 0 1-.385-.305.82.82 0 0 1-.145-.465.803.803 0 0 1 .227-.577.83.83 0 0 1 .576-.25zm0 1.016a.193.193 0 0 0 .182-.11.184.184 0 0 0-.035-.207.191.191 0 0 0-.316.2.181.181 0 0 0 .098.101c.022.01.046.015.07.016z"/>
        </mask>
        <path d="M18.523 4.787a2.865 2.865 0 0 0-2.01-.42 3.196 3.196 0 0 0-1.308-1.811l-.376-.238-.27.362a3.033 3.033 0 0 0-.266 3.155 2.17 2.17 0 0 1-.897.252h-.302V4.203h-2.06V.523H8.548v1.84H4.473v1.839H2.435v1.885H1.102l-.063.432a5.79 5.79 0 0 0 1.16 4.2c1.09 1.31 2.832 1.974 5.178 1.974a9.196 9.196 0 0 0 3.882-.738 9.059 9.059 0 0 0 3.194-2.294 9.543 9.543 0 0 0 1.69-2.697c2.27-.04 2.578-1.598 2.59-1.665l.06-.326-.267-.186h-.003zM9.26 4.195V3.1h1.06v1.095H9.26zM5.185 6.033V4.94h1.059v1.094h-1.06zm2.038 0V4.94H8.28v1.094H7.223zm2.037 0V4.94h1.06v1.094H9.26zm2.06-1.094h1.058v1.094H11.32V4.94zM9.26 1.26h1.06v1.094H9.26V1.261zm-2.037 1.84H8.28v1.094H7.223V3.1zm-2.038 0h1.059v1.094h-1.06V3.1zM3.147 4.938h1.058v1.094H3.147V4.94zm4.226 6.74a7.475 7.475 0 0 1-2.841-.482 4.871 4.871 0 0 0 1.826-.786.521.521 0 0 0 .095-.685.485.485 0 0 0-.66-.141 4.59 4.59 0 0 1-2.61.743 3.146 3.146 0 0 1-.232-.255 4.614 4.614 0 0 1-.963-2.966h11.41a3.05 3.05 0 0 0 1.876-.738l.06-.056a8.13 8.13 0 0 1-3.097 3.95 8.345 8.345 0 0 1-4.861 1.42l-.003-.004zm8.454-5.735-.304-.015-.183-.252a2.197 2.197 0 0 1-.261-1.918c.322.319.507.748.513 1.198l-.02.72.663-.222a2.524 2.524 0 0 1 1.342-.02 2.09 2.09 0 0 1-1.75.509zm-8.246 2.06a.854.854 0 0 1 .479.12.834.834 0 0 1 .328.364.817.817 0 0 1-.157.916.847.847 0 0 1-.923.198.84.84 0 0 1-.385-.305.82.82 0 0 1-.145-.465.803.803 0 0 1 .227-.577.83.83 0 0 1 .576-.25zm0 1.016a.193.193 0 0 0 .182-.11.184.184 0 0 0-.035-.207.191.191 0 0 0-.316.2.181.181 0 0 0 .098.101c.022.01.046.015.07.016z" fill="#72A3E4"/>
        <path d="M18.523 4.787a2.865 2.865 0 0 0-2.01-.42 3.196 3.196 0 0 0-1.308-1.811l-.376-.238-.27.362a3.033 3.033 0 0 0-.266 3.155 2.17 2.17 0 0 1-.897.252h-.302V4.203h-2.06V.523H8.548v1.84H4.473v1.839H2.435v1.885H1.102l-.063.432a5.79 5.79 0 0 0 1.16 4.2c1.09 1.31 2.832 1.974 5.178 1.974a9.196 9.196 0 0 0 3.882-.738 9.059 9.059 0 0 0 3.194-2.294 9.543 9.543 0 0 0 1.69-2.697c2.27-.04 2.578-1.598 2.59-1.665l.06-.326-.267-.186h-.003zM9.26 4.195V3.1h1.06v1.095H9.26zM5.185 6.033V4.94h1.059v1.094h-1.06zm2.038 0V4.94H8.28v1.094H7.223zm2.037 0V4.94h1.06v1.094H9.26zm2.06-1.094h1.058v1.094H11.32V4.94zM9.26 1.26h1.06v1.094H9.26V1.261zm-2.037 1.84H8.28v1.094H7.223V3.1zm-2.038 0h1.059v1.094h-1.06V3.1zM3.147 4.938h1.058v1.094H3.147V4.94zm4.226 6.74a7.475 7.475 0 0 1-2.841-.482 4.871 4.871 0 0 0 1.826-.786.521.521 0 0 0 .095-.685.485.485 0 0 0-.66-.141 4.59 4.59 0 0 1-2.61.743 3.146 3.146 0 0 1-.232-.255 4.614 4.614 0 0 1-.963-2.966h11.41a3.05 3.05 0 0 0 1.876-.738l.06-.056a8.13 8.13 0 0 1-3.097 3.95 8.345 8.345 0 0 1-4.861 1.42l-.003-.004zm8.454-5.735-.304-.015-.183-.252a2.197 2.197 0 0 1-.261-1.918c.322.319.507.748.513 1.198l-.02.72.663-.222a2.524 2.524 0 0 1 1.342-.02 2.09 2.09 0 0 1-1.75.509zm-8.246 2.06a.854.854 0 0 1 .479.12.834.834 0 0 1 .328.364.817.817 0 0 1-.157.916.847.847 0 0 1-.923.198.84.84 0 0 1-.385-.305.82.82 0 0 1-.145-.465.803.803 0 0 1 .227-.577.83.83 0 0 1 .576-.25zm0 1.016a.193.193 0 0 0 .182-.11.184.184 0 0 0-.035-.207.191.191 0 0 0-.316.2.181.181 0 0 0 .098.101c.022.01.046.015.07.016z" stroke="#72A3E4" stroke-width=".2" mask="url(#h8m254fj1c)"/>
        <rect x="-9.5" y="-146.049" width="324" height="218" rx="7.5" stroke="#C9D5EB" shape-rendering="crispEdges"/>
    </g>
    <defs>
        <filter id="xnzr8vniqa" x="-14" y="-150.549" width="333" height="227" filterUnits="userSpaceOnUse" color-interpolation-filters="sRGB">
            <feFlood flood-opacity="0" result="BackgroundImageFix"/>
            <feColorMatrix in="SourceAlpha" values="0 0 0 0 0 0 0 0 0 0 0 0 0 0 0 0 0 0 127 0" result="hardAlpha"/>
            <feOffset/>
            <feGaussianBlur stdDeviation="2"/>
            <feComposite in2="hardAlpha" operator="out"/>
            <feColorMatrix values="0 0 0 0 0 0 0 0 0 0 0 0 0 0 0 0 0 0 0.02 0"/>
            <feBlend in2="BackgroundImageFix" result="effect1_dropShadow_20_2103"/>
            <feBlend in="SourceGraphic" in2="effect1_dropShadow_20_2103" result="shape"/>
        </filter>
        <filter id="gl3tz5568b" x="-19" y="-151.549" width="57" height="237" filterUnits="userSpaceOnUse" color-interpolation-filters="sRGB">
            <feFlood flood-opacity="0" result="BackgroundImageFix"/>
            <feColorMatrix in="SourceAlpha" values="0 0 0 0 0 0 0 0 0 0 0 0 0 0 0 0 0 0 127 0" result="hardAlpha"/>
            <feOffset dy="4"/>
            <feGaussianBlur stdDeviation="5"/>
            <feComposite in2="hardAlpha" operator="out"/>
            <feColorMatrix values="0 0 0 0 0.788235 0 0 0 0 0.835294 0 0 0 0 0.921569 0 0 0 0.8 0"/>
            <feBlend in2="BackgroundImageFix" result="effect1_dropShadow_20_2103"/>
            <feBlend in="SourceGraphic" in2="effect1_dropShadow_20_2103" result="shape"/>
        </filter>
    </defs>
</svg>
