<svg width="15" height="14" viewBox="0 0 15 14" fill="none" xmlns="http://www.w3.org/2000/svg">
    <g clip-path="url(#gto5dvg21a)">
        <path fill="#F4F6F8" d="M-700-451H500v1469H-700z"/>
        <path fill-rule="evenodd" clip-rule="evenodd" d="m5.283 8.152.553-2.171a.593.593 0 0 1 .148-.258L11.18.497a1.737 1.737 0 0 1 2.432 0 1.731 1.731 0 0 1 0 2.429l-5.196 5.19a.594.594 0 0 1-.258.146l-2.174.552h-.148a.555.555 0 0 1-.405-.147c-.148-.11-.185-.331-.148-.515zm6.708-6.845L6.868 6.385 6.61 7.563l1.142-.294 5.086-5.116a.623.623 0 0 0 0-.846.625.625 0 0 0-.847 0zm1.031 5.52c0-.294.258-.552.553-.552.295 0 .553.258.553.552v5.52c0 .7-.59 1.289-1.29 1.289H1.782c-.7 0-1.29-.59-1.29-1.288V1.306c0-.7.59-1.289 1.29-1.289H7.31c.295 0 .553.258.553.552a.566.566 0 0 1-.553.553H1.782c-.11 0-.184.073-.184.184v11.04c0 .111.073.185.184.185h11.056c.11 0 .184-.074.184-.184V6.827z" fill="#7F8DA8"/>
        <path fill-rule="evenodd" clip-rule="evenodd" d="m5.283 8.152.553-2.171a.593.593 0 0 1 .148-.258L11.18.497a1.737 1.737 0 0 1 2.432 0 1.731 1.731 0 0 1 0 2.429l-5.196 5.19a.594.594 0 0 1-.258.146l-2.174.552h-.148a.555.555 0 0 1-.405-.147c-.148-.11-.185-.331-.148-.515zm6.708-6.845L6.868 6.385 6.61 7.563l1.142-.294 5.086-5.116a.623.623 0 0 0 0-.846.625.625 0 0 0-.847 0zm1.031 5.52c0-.294.258-.552.553-.552.295 0 .553.258.553.552v5.52c0 .7-.59 1.289-1.29 1.289H1.782c-.7 0-1.29-.59-1.29-1.288V1.306c0-.7.59-1.289 1.29-1.289H7.31c.295 0 .553.258.553.552a.566.566 0 0 1-.553.553H1.782c-.11 0-.184.073-.184.184v11.04c0 .111.073.185.184.185h11.056c.11 0 .184-.074.184-.184V6.827z" fill="#7F8DA8"/>
    </g>
    <defs>
        <clipPath id="gto5dvg21a">
            <path fill="#fff" transform="translate(-700 -451)" d="M0 0h1200v1469H0z"/>
        </clipPath>
    </defs>
</svg>
