<svg width="17" height="15" viewBox="0 0 17 15" fill="none" xmlns="http://www.w3.org/2000/svg">
    <path fill="#fff" d="M-76-24H35v54H-76z"/>
    <path d="M8.275 14.501a.675.675 0 0 0 .672.674.671.671 0 0 0 .62-.932.674.674 0 0 0-.877-.364.672.672 0 0 0-.415.622z" fill="#72A3E4" stroke="#72A3E4" stroke-width=".1"/>
    <path d="M12.658 2.358H8.46L6.922.278a.598.598 0 0 0-.536-.326L6.385-.05H2.41A2.469 2.469 0 0 0-.05 2.427v10.277a2.469 2.469 0 0 0 2.461 2.477H6.51v-.01a.673.673 0 0 0-.081-1.344H2.991a1.16 1.16 0 0 1-1.12-1.454l1.372-5.332.004-.002.005-.022c.121-.511.576-.89 1.122-.893h.011l.004-.002h10.018a1.16 1.16 0 0 1 1.17 1.515l-.003.007v.003l-1.364 5.299v.004a.247.247 0 0 0-.007.03l-.025.092-.007.005-.005.013c-.023.062-.052.12-.085.176h-.026l-.014.026a1.1 1.1 0 0 1-.17.233c-.206.192-.482.31-.783.31-.024 0-.047 0-.067-.002h-1.524c-.02-.002-.042-.002-.06-.002a.673.673 0 0 0-.05 1.346v.005h1.796l.01-.007a2.462 2.462 0 0 0 2.348-1.825l.004-.005.004-.013 1.276-5.412a2.48 2.48 0 0 0-1.707-3.04v-.046a2.469 2.469 0 0 0-2.46-2.476zm1.149 2.417H4.303a2.469 2.469 0 0 0-2.41 1.97l-.009.006-.004.017-.617 2.62V2.421A1.16 1.16 0 0 1 2.42 1.258h3.564l1.54 2.087c.135.232.39.35.64.322h4.49c.618 0 1.124.491 1.154 1.108z" fill="#72A3E4" stroke="#72A3E4" stroke-width=".1"/>
</svg>
