<svg width="20" height="20" viewBox="0 0 20 20" fill="none" xmlns="http://www.w3.org/2000/svg">
    <g filter="url(#hdu94uzz5a)">
        <rect x="-648.5" y="-15" width="677" height="244" rx="8" fill="#fff" shape-rendering="crispEdges"/>
        <path d="M6.8 2.276A2.28 2.28 0 0 1 9.082 0h1.836A2.278 2.278 0 0 1 13.2 2.276v.621c.5.213.977.478 1.422.79l.539-.307a2.29 2.29 0 0 1 3.112.828l.918 1.574a2.268 2.268 0 0 1-.84 3.114l-.478.273c.06.552.06 1.11 0 1.662l.478.273a2.268 2.268 0 0 1 .84 3.114l-.919 1.574a2.29 2.29 0 0 1-3.111.829l-.54-.309a7.802 7.802 0 0 1-1.421.79v.622A2.28 2.28 0 0 1 10.918 20H9.082A2.278 2.278 0 0 1 6.8 17.724v-.735a7.805 7.805 0 0 1-1.28-.758l-.681.39a2.29 2.29 0 0 1-3.112-.829L.81 14.218a2.268 2.268 0 0 1 .84-3.114l.719-.41a7.751 7.751 0 0 1 0-1.387l-.72-.41A2.268 2.268 0 0 1 .81 5.781l.919-1.574a2.289 2.289 0 0 1 3.111-.828l.68.389A7.8 7.8 0 0 1 6.8 3.01v-.735zm1.81 1.34a.912.912 0 0 1-.59.852A5.993 5.993 0 0 0 6.191 5.55a.903.903 0 0 1-1.038.101l-1.21-.691a.486.486 0 0 0-.656.167L2.37 6.7a.445.445 0 0 0 .174.615l1.248.714a.907.907 0 0 1 .443.948 5.882 5.882 0 0 0 0 2.044.913.913 0 0 1-.443.949l-1.248.713a.445.445 0 0 0-.174.615l.919 1.574c.128.22.425.299.656.168l1.21-.692a.9.9 0 0 1 1.037.1c.54.467 1.159.834 1.827 1.082a.905.905 0 0 1 .59.853v1.34c0 .252.209.458.473.458h1.836a.467.467 0 0 0 .473-.458v-1.25a.912.912 0 0 1 .624-.864 5.988 5.988 0 0 0 1.958-1.085.902.902 0 0 1 1.025-.09l1.058.605c.23.132.527.053.656-.167l.918-1.574a.445.445 0 0 0-.174-.615l-1.017-.582a.908.908 0 0 1-.44-.966 5.883 5.883 0 0 0 0-2.271.913.913 0 0 1 .44-.967l1.017-.582a.445.445 0 0 0 .174-.615l-.919-1.574a.486.486 0 0 0-.656-.167l-1.057.604a.901.901 0 0 1-1.024-.089 5.99 5.99 0 0 0-1.96-1.084.905.905 0 0 1-.623-.864V2.276a.464.464 0 0 0-.473-.458H9.082a.467.467 0 0 0-.473.458v1.34zM10 13.182c-.84 0-1.645-.335-2.24-.932a3.19 3.19 0 0 1 0-4.5 3.159 3.159 0 0 1 4.48 0 3.19 3.19 0 0 1 0 4.5c-.595.597-1.4.932-2.24.932zm0-1.818c.36 0 .705-.144.96-.4a1.367 1.367 0 0 0 0-1.928 1.354 1.354 0 0 0-1.92 0 1.367 1.367 0 0 0 0 1.928c.255.256.6.4.96.4z" fill="#788DA2"/>
        <rect x="-648" y="-14.5" width="676" height="243" rx="7.5" stroke="#C9D5EB" shape-rendering="crispEdges"/>
    </g>
    <defs>
        <filter id="hdu94uzz5a" x="-652.5" y="-19" width="685" height="252" filterUnits="userSpaceOnUse" color-interpolation-filters="sRGB">
            <feFlood flood-opacity="0" result="BackgroundImageFix"/>
            <feColorMatrix in="SourceAlpha" values="0 0 0 0 0 0 0 0 0 0 0 0 0 0 0 0 0 0 127 0" result="hardAlpha"/>
            <feOffset/>
            <feGaussianBlur stdDeviation="2"/>
            <feComposite in2="hardAlpha" operator="out"/>
            <feColorMatrix values="0 0 0 0 0 0 0 0 0 0 0 0 0 0 0 0 0 0 0.1 0"/>
            <feBlend in2="BackgroundImageFix" result="effect1_dropShadow_22_2694"/>
            <feBlend in="SourceGraphic" in2="effect1_dropShadow_22_2694" result="shape"/>
        </filter>
    </defs>
</svg>
