<svg width="21" height="22" viewBox="0 0 21 22" fill="none" xmlns="http://www.w3.org/2000/svg">
    <g filter="url(#gklt4k247a)">
        <rect x="-8" y="-8.549" width="325" height="219" rx="8" fill="#fff" shape-rendering="crispEdges"/>
        <path d="m27.021 13.137-.35.271c-.556.428-1.268.978-1.76 1.362l-.033.031c-.134.094-.3.157-.435.126-.2 0-.335-.095-.469-.22l-.334-.314-.904-.848c-.134-.094-.1-.282-.067-.44.134-.313.1-.721-.168-.972l-.736-.69a.705.705 0 0 1-.201.125c-.134.11-.26.227-.385.345a7.763 7.763 0 0 1-.385.345c.067.346-.034.691-.335.974-.234.22-.536.313-.837.313v.032l-8.337 7.816c-.167.188-.468.251-.736.157a1.486 1.486 0 0 1-.368-.251c-.267-.27-.549-.528-.835-.79-.145-.132-.291-.266-.438-.403-.134-.125-.234-.282-.234-.47 0-.19.067-.346.2-.472a619.268 619.268 0 0 0 6.73-6.31l1.474-1.38c-.101-.377 0-.754.3-1.036a1.18 1.18 0 0 1 .938-.314 6.45 6.45 0 0 1 .102-.093c.142-.128.293-.264.4-.44a.233.233 0 0 0 .067-.158c.1-.251.067-.565-.033-.816-.158-.386-.436-.744-.693-1.074l-.044-.056c-.267-.283-.535-.565-.837-.816l-.067-.063c-1.037-.848-2.276-1.413-3.549-1.852-.07-.033-.15-.049-.233-.065-.076-.015-.156-.03-.235-.06.87 0 1.74.03 2.611.093.223 0 .447.028.67.056a10.918 10.918 0 0 0 .485.054c.05.008.1.016.15.016.604.063 1.173.157 1.775.283.168.03.302.062.47.125.267.063.501.157.736.283.23.08.41.254.584.42l.085.082 1.105 1.036c.251.235.51.47.77.706s.52.471.77.706l.069.063c.118.106.244.22.3.377a.537.537 0 0 1-.034.502c-.04.076-.093.13-.15.187a1.516 1.516 0 0 0-.118.127c.235.22.469.44.67.66.029.027.055.056.081.086.064.072.125.142.22.164.235.252.67.283 1.038.189.167-.032.368-.032.469.094l.602.66.503.564c.1.126.2.283.2.471.034.188-.1.377-.234.502z" fill="#8B99B4"/>
        <path d="m27.021 13.137-.35.271c-.556.428-1.268.978-1.76 1.362l-.033.031c-.134.094-.3.157-.435.126-.2 0-.335-.095-.469-.22l-.334-.314-.904-.848c-.134-.094-.1-.282-.067-.44.134-.313.1-.721-.168-.972l-.736-.69a.705.705 0 0 1-.201.125c-.134.11-.26.227-.385.345a7.763 7.763 0 0 1-.385.345c.067.346-.034.691-.335.974-.234.22-.536.313-.837.313v.032l-8.337 7.816c-.167.188-.468.251-.736.157a1.486 1.486 0 0 1-.368-.251c-.267-.27-.549-.528-.835-.79-.145-.132-.291-.266-.438-.403-.134-.125-.234-.282-.234-.47 0-.19.067-.346.2-.472a619.268 619.268 0 0 0 6.73-6.31l1.474-1.38c-.101-.377 0-.754.3-1.036a1.18 1.18 0 0 1 .938-.314 6.45 6.45 0 0 1 .102-.093c.142-.128.293-.264.4-.44a.233.233 0 0 0 .067-.158c.1-.251.067-.565-.033-.816-.158-.386-.436-.744-.693-1.074l-.044-.056c-.267-.283-.535-.565-.837-.816l-.067-.063c-1.037-.848-2.276-1.413-3.549-1.852-.07-.033-.15-.049-.233-.065-.076-.015-.156-.03-.235-.06.87 0 1.74.03 2.611.093.223 0 .447.028.67.056a10.918 10.918 0 0 0 .485.054c.05.008.1.016.15.016.604.063 1.173.157 1.775.283.168.03.302.062.47.125.267.063.501.157.736.283.23.08.41.254.584.42l.085.082 1.105 1.036c.251.235.51.47.77.706s.52.471.77.706l.069.063c.118.106.244.22.3.377a.537.537 0 0 1-.034.502c-.04.076-.093.13-.15.187a1.516 1.516 0 0 0-.118.127c.235.22.469.44.67.66.029.027.055.056.081.086.064.072.125.142.22.164.235.252.67.283 1.038.189.167-.032.368-.032.469.094l.602.66.503.564c.1.126.2.283.2.471.034.188-.1.377-.234.502z" stroke="#8B99B4"/>
        <g filter="url(#gs3okc61nb)">
            <path d="M-7 3.65c0-3.92 0-5.88.763-7.377a7 7 0 0 1 3.06-3.06C-1.682-7.548.28-7.548 4.2-7.548h3.4c7.84 0 11.761 0 14.756 1.526A14 14 0 0 1 28.474.095C30 3.09 30 7.01 30 14.85v172.2c0 7.84 0 11.761-1.526 14.755a14.002 14.002 0 0 1-6.118 6.119c-2.995 1.526-6.915 1.526-14.756 1.526H4.2c-3.92 0-5.88 0-7.378-.763a7 7 0 0 1-3.059-3.059C-7 204.131-7 202.171-7 198.251V3.651z" fill="#FEFEFF"/>
        </g>
        <circle cx="10.5" cy="10.951" r="9.9" stroke="#6AC2BD" stroke-width="1.2"/>
        <path d="m5.94 12.093.18-.171.473-.449c-.085-.37-.02-.824.323-1.15l.515-.489.413-.391.39.37.008.003.068.032.058.049c.109.09.209.185.293.265l.006.005c.09.086.163.155.24.218l.272.226-.067.349a.119.119 0 0 0 .002.061c.004.014.017.041.056.079.034.032.087.057.173.057h.6v.365l5.582 5.293.002-.002c.195-.2.409-.397.612-.585l.187-.173a440.906 440.906 0 0 1-4.588-4.353l-1.028-.975-.258-.245.09-.343a.142.142 0 0 0 .003-.076.152.152 0 0 0-.046-.069.221.221 0 0 0-.186-.06l-.272.026-.198-.188-.038-.035c-.087-.077-.258-.231-.384-.42a.773.773 0 0 1-.15-.33 1.442 1.442 0 0 1 .052-.937l.002-.005c.143-.352.386-.667.556-.888l.04-.05.017-.024.02-.022.01-.01c.178-.19.381-.407.613-.604l.035-.033.015-.014.016-.013a6.1 6.1 0 0 1 .18-.143c-.28.038-.555.088-.845.149l-.012.002a1.209 1.209 0 0 0-.227.06l-.037.015-.038.009c-.128.03-.243.076-.367.143l-.041.022-.044.016s-.006.002-.016.009a.468.468 0 0 0-.051.038 1.677 1.677 0 0 0-.117.109l-.073.07-.404-.428.404.427-.772.733c-.18.17-.364.34-.544.505l-.002.001a44.666 44.666 0 0 0-.563.523l.042.051.34.43-.397.378a8.287 8.287 0 0 0-.436.433l-.016.017-.014.014a.77.77 0 0 0-.017.019 1.74 1.74 0 0 1-.064.07.879.879 0 0 1-.216.166c-.18.145-.387.214-.568.24-.17.026-.34.02-.498-.007l-.29.322-.279.316.117.09 1.157.907z" fill="#6AC2BD" stroke="#6AC2BD" stroke-width="1.2"/>
        <rect x="-7.5" y="-8.049" width="324" height="218" rx="7.5" stroke="#C9D5EB" shape-rendering="crispEdges"/>
    </g>
    <defs>
        <filter id="gklt4k247a" x="-12" y="-12.549" width="333" height="227" filterUnits="userSpaceOnUse" color-interpolation-filters="sRGB">
            <feFlood flood-opacity="0" result="BackgroundImageFix"/>
            <feColorMatrix in="SourceAlpha" values="0 0 0 0 0 0 0 0 0 0 0 0 0 0 0 0 0 0 127 0" result="hardAlpha"/>
            <feOffset/>
            <feGaussianBlur stdDeviation="2"/>
            <feComposite in2="hardAlpha" operator="out"/>
            <feColorMatrix values="0 0 0 0 0 0 0 0 0 0 0 0 0 0 0 0 0 0 0.02 0"/>
            <feBlend in2="BackgroundImageFix" result="effect1_dropShadow_20_2103"/>
            <feBlend in="SourceGraphic" in2="effect1_dropShadow_20_2103" result="shape"/>
        </filter>
        <filter id="gs3okc61nb" x="-17" y="-13.549" width="57" height="237" filterUnits="userSpaceOnUse" color-interpolation-filters="sRGB">
            <feFlood flood-opacity="0" result="BackgroundImageFix"/>
            <feColorMatrix in="SourceAlpha" values="0 0 0 0 0 0 0 0 0 0 0 0 0 0 0 0 0 0 127 0" result="hardAlpha"/>
            <feOffset dy="4"/>
            <feGaussianBlur stdDeviation="5"/>
            <feComposite in2="hardAlpha" operator="out"/>
            <feColorMatrix values="0 0 0 0 0.788235 0 0 0 0 0.835294 0 0 0 0 0.921569 0 0 0 0.8 0"/>
            <feBlend in2="BackgroundImageFix" result="effect1_dropShadow_20_2103"/>
            <feBlend in="SourceGraphic" in2="effect1_dropShadow_20_2103" result="shape"/>
        </filter>
    </defs>
</svg>
