<svg width="14" height="16" viewBox="0 0 14 16" fill="none" xmlns="http://www.w3.org/2000/svg">
    <g filter="url(#8ydrzjfisa)">
        <rect x="-12" y="-176.549" width="325" height="219" rx="8" fill="#fff" shape-rendering="crispEdges"/>
        <g filter="url(#fgpe3eugdb)">
            <path d="M-11-164.349c0-3.921 0-5.881.763-7.378a7 7 0 0 1 3.06-3.059c1.496-.763 3.457-.763 7.377-.763h3.4c7.84 0 11.761 0 14.756 1.526a13.995 13.995 0 0 1 6.118 6.118C26-164.91 26-160.99 26-153.149v172.2c0 7.84 0 11.76-1.526 14.756a14 14 0 0 1-6.118 6.118C15.36 41.45 11.44 41.45 3.6 41.45H.2c-3.92 0-5.88 0-7.378-.763a7 7 0 0 1-3.059-3.06C-11 36.132-11 34.172-11 30.252v-194.6z" fill="#FEFEFF"/>
        </g>
        <path d="M2.057.489h8.127c.105 0 .205.042.28.118l3.321 3.386a.407.407 0 0 1 .116.285v10.298c0 .32-.125.628-.347.854a1.173 1.173 0 0 1-.838.354H2.057c-.314 0-.615-.127-.837-.354a1.22 1.22 0 0 1-.347-.854V1.696c0-.32.125-.627.347-.854.222-.226.523-.353.837-.353zm.79 1.61a.391.391 0 0 0-.28.118.407.407 0 0 0-.115.284v11.27c0 .107.042.21.116.285a.39.39 0 0 0 .279.118h9.08a.391.391 0 0 0 .28-.118.406.406 0 0 0 .115-.285V5.083a.406.406 0 0 0-.116-.285L9.674 2.217a.391.391 0 0 0-.28-.118H2.848z" fill="#72A3E4"/>
        <path d="M9.848 3.998h2.605v1.59H8.98a.911.911 0 0 1-.614-.234.762.762 0 0 1-.254-.561V1.217h1.737v2.781z" fill="#72A3E4"/>
        <path d="M12.453 4.13v1.457H9.848a1.92 1.92 0 0 1-1.228-.426c-.326-.274-.51-.644-.51-1.03h4.343zM4.53 7.772h5.714c.508 0 .762.243.762.729 0 .485-.254.728-.762.728H4.53c-.508 0-.762-.243-.762-.728 0-.486.254-.729.762-.729zM4.54 10.686h4.246c.515 0 .772.242.772.728s-.257.728-.772.728H4.54c-.515 0-.772-.242-.772-.728s.257-.728.772-.728z" fill="#72A3E4"/>
        <rect x="-11.5" y="-176.049" width="324" height="218" rx="7.5" stroke="#C9D5EB" shape-rendering="crispEdges"/>
    </g>
    <defs>
        <filter id="8ydrzjfisa" x="-16" y="-180.549" width="333" height="227" filterUnits="userSpaceOnUse" color-interpolation-filters="sRGB">
            <feFlood flood-opacity="0" result="BackgroundImageFix"/>
            <feColorMatrix in="SourceAlpha" values="0 0 0 0 0 0 0 0 0 0 0 0 0 0 0 0 0 0 127 0" result="hardAlpha"/>
            <feOffset/>
            <feGaussianBlur stdDeviation="2"/>
            <feComposite in2="hardAlpha" operator="out"/>
            <feColorMatrix values="0 0 0 0 0 0 0 0 0 0 0 0 0 0 0 0 0 0 0.02 0"/>
            <feBlend in2="BackgroundImageFix" result="effect1_dropShadow_20_2103"/>
            <feBlend in="SourceGraphic" in2="effect1_dropShadow_20_2103" result="shape"/>
        </filter>
        <filter id="fgpe3eugdb" x="-21" y="-181.549" width="57" height="237" filterUnits="userSpaceOnUse" color-interpolation-filters="sRGB">
            <feFlood flood-opacity="0" result="BackgroundImageFix"/>
            <feColorMatrix in="SourceAlpha" values="0 0 0 0 0 0 0 0 0 0 0 0 0 0 0 0 0 0 127 0" result="hardAlpha"/>
            <feOffset dy="4"/>
            <feGaussianBlur stdDeviation="5"/>
            <feComposite in2="hardAlpha" operator="out"/>
            <feColorMatrix values="0 0 0 0 0.788235 0 0 0 0 0.835294 0 0 0 0 0.921569 0 0 0 0.8 0"/>
            <feBlend in2="BackgroundImageFix" result="effect1_dropShadow_20_2103"/>
            <feBlend in="SourceGraphic" in2="effect1_dropShadow_20_2103" result="shape"/>
        </filter>
    </defs>
</svg>
