<svg width="21" height="21" viewBox="0 0 21 21" fill="none" xmlns="http://www.w3.org/2000/svg">
    <path fill-rule="evenodd" clip-rule="evenodd" d="M10.509 0C4.698 0 0 4.813 0 10.766c0 4.76 3.01 8.788 7.186 10.214.522.107.713-.232.713-.517 0-.25-.017-1.105-.017-1.997-2.923.642-3.532-1.283-3.532-1.283-.47-1.248-1.166-1.569-1.166-1.569-.957-.659.07-.659.07-.659 1.06.071 1.618 1.105 1.618 1.105.94 1.64 2.453 1.177 3.062.891.087-.695.365-1.176.66-1.443-2.33-.25-4.784-1.177-4.784-5.312 0-1.177.418-2.14 1.079-2.888-.104-.267-.47-1.372.104-2.852 0 0 .888-.285 2.889 1.105a9.945 9.945 0 0 1 2.627-.356c.887 0 1.792.125 2.627.356 2-1.39 2.888-1.105 2.888-1.105.574 1.48.209 2.585.104 2.852.679.749 1.08 1.711 1.08 2.888 0 4.135-2.454 5.044-4.803 5.312.383.338.713.98.713 1.996 0 1.444-.017 2.602-.017 2.959 0 .285.191.624.713.517C17.99 19.554 21 15.525 21 10.766 21.017 4.813 16.302 0 10.509 0z" fill="#1A1414"/>
</svg>
