<svg width="17" height="17" viewBox="0 0 17 17" fill="none" xmlns="http://www.w3.org/2000/svg">
    <path fill-rule="evenodd" clip-rule="evenodd" d="m5.973 10.163.69-2.707a.74.74 0 0 1 .183-.321L13.325.619a2.165 2.165 0 0 1 3.032 0 2.158 2.158 0 0 1 0 3.029l-6.478 6.47a.74.74 0 0 1-.322.183l-2.71.688h-.185c-.183 0-.367-.046-.505-.183-.184-.138-.23-.413-.184-.643zm8.362-8.534L7.95 7.96l-.322 1.468 1.425-.367 6.34-6.378a.777.777 0 0 0 0-1.055.78.78 0 0 0-1.057 0zm1.287 6.882c0-.367.321-.688.689-.688.367 0 .689.321.689.688v6.883c0 .872-.735 1.606-1.608 1.606H1.608A1.627 1.627 0 0 1 0 15.394V1.629C0 .757.735.023 1.608.023H8.5c.368 0 .69.321.69.688a.706.706 0 0 1-.69.688H1.608c-.138 0-.23.092-.23.23v13.765c0 .138.092.23.23.23h13.784c.138 0 .23-.092.23-.23V8.51z" fill="#7F8DA8"/>
</svg>
