<svg width="47" height="47" viewBox="0 0 47 47" fill="none" xmlns="http://www.w3.org/2000/svg">
    <path d="M42.715 2.503c-.659 1.546-1.464 3.092-2.489 4.49-9.224-9.275-24.084-9.349-33.308-.073s-9.224 24.147 0 33.35c.146.147.293.294.512.441l.879.736c9.883 8.393 24.743 7.142 33.088-2.87a23.637 23.637 0 0 0 5.491-13.546c.586-5.89-1.171-13.473-4.173-22.528zm-31.99 38.43c-.732.883-1.977 1.03-2.855.294-.879-.736-1.025-1.988-.293-2.872.732-.883 1.976-1.03 2.855-.294.878.736.951 1.988.293 2.871zm31.844-7.068c-5.783 7.73-18.155 5.153-26.134 5.521 0 0-1.391.074-2.855.295 0 0 .512-.221 1.244-.516 5.564-1.987 8.199-2.356 11.566-4.049 6.37-3.239 12.665-10.38 13.983-17.816-2.416 7.142-9.81 13.252-16.472 15.755-4.611 1.693-12.884 3.386-12.884 3.386l-.366-.147c-5.636-2.797-5.856-15.092 4.466-18.993 4.465-1.767 8.784-.81 13.69-1.915 5.197-1.251 11.2-5.153 13.615-10.233 2.782 8.025 6.076 20.76.147 28.712z" fill="#68BD45"/>
</svg>
