<svg width="16" height="20" viewBox="0 0 16 20" fill="none" stroke="currentColor" xmlns="http://www.w3.org/2000/svg">
    <path fill="#fff" d="M-140-143h352v283h-352z"/>
    <path d="M4 8V5v0a4 4 0 0 1 4-4v0a4 4 0 0 1 4 4v3M8 12v3" stroke="currentColor" stroke-width="1.5" stroke-linecap="round" stroke-linejoin="round"/>
    <path clip-rule="evenodd" d="M13 19H3a2 2 0 0 1-2-2v-7a2 2 0 0 1 2-2h10a2 2 0 0 1 2 2v7a2 2 0 0 1-2 2z" stroke="currentColor" stroke-width="1.5" stroke-linecap="round" stroke-linejoin="round"/>
</svg>
