<svg width="21" height="12" viewBox="0 0 21 12" fill="none" xmlns="http://www.w3.org/2000/svg">
    <path d="M9.418 7.67A11.535 11.535 0 0 1 7.1 7.274l-1.54 3.304a.934.934 0 0 1-1.249.448.942.942 0 0 1-.46-1.244l1.48-3.17a9.971 9.971 0 0 1-3.288-2.488A8.58 8.58 0 0 1 .487 1.49.942.942 0 0 1 2.255.842c.28.752.693 1.449 1.22 2.055 1.557 1.816 4.037 2.918 6.746 2.918 2.71 0 5.19-1.103 6.748-2.918A6.698 6.698 0 0 0 18.188.842a.942.942 0 1 1 1.768.648A8.58 8.58 0 0 1 18.4 4.124a9.39 9.39 0 0 1-.415.452l2.304 2.304a.942.942 0 0 1-1.332 1.332l-2.42-2.42c-.452.31-.933.586-1.435.825l1.476 3.165a.942.942 0 0 1-.814 1.333.937.937 0 0 1-.893-.537l-1.54-3.3c-.663.184-1.342.308-2.029.37v2.884a.942.942 0 0 1-1.883.001V7.67z" fill="#3D3D3D"/>
    <path d="M2.946 4.204a.935.935 0 0 1 1.325.006.942.942 0 0 1 .006 1.326L1.602 8.212a.935.935 0 0 1-1.326-.007.942.942 0 0 1-.007-1.325l2.677-2.677v.001z" fill="#3D3D3D"/>
</svg>
