<svg width="20" height="15" viewBox="0 0 20 15" fill="none" xmlns="http://www.w3.org/2000/svg">
    <path d="M9.86 12.06a3.394 3.394 0 1 1 0-6.788 3.394 3.394 0 0 1 0 6.788zm0-1.9a1.493 1.493 0 1 0 0-2.987 1.493 1.493 0 0 0 0 2.986z" fill="#3D3D3D"/>
    <path d="M9.93 13.03c2.377 0 4.76-1.399 7.147-4.28-2.084-2.884-4.453-4.282-7.147-4.282-2.697 0-5.153 1.4-7.399 4.282 2.55 2.879 5.018 4.28 7.399 4.28zm7.122-7.262a17.022 17.022 0 0 1 2 2.496l.38.57-.42.542c-2.862 3.669-5.89 5.554-9.082 5.554-3.182 0-6.295-1.874-9.346-5.53L.11 8.834l.431-.598c.854-1.186 1.753-2.19 2.695-3.006l-1.61-1.715a.679.679 0 1 1 .99-.93l1.695 1.806a10.197 10.197 0 0 1 3.07-1.474L6.558.976a.679.679 0 1 1 1.25-.53l.93 2.196a9.535 9.535 0 0 1 3.224.148L13.05.398a.679.679 0 1 1 1.236.562l-1.014 2.23c.974.38 1.902.934 2.78 1.659l1.984-1.984a.678.678 0 1 1 .96.96l-1.944 1.944z" fill="#3D3D3D"/>
</svg>
