<svg width="26" height="26" viewBox="0 0 26 26" fill="none" xmlns="http://www.w3.org/2000/svg">
    <path d="M4.75 9.75h17.5v7.5H4.75v-7.5z" fill="#9AC5FE"/>
    <path d="M21.65 16v-5H5.4v5h16.25zm0 2.5H5.4V21a2.5 2.5 0 0 0 2.5 2.5h11.25a1.25 1.25 0 0 1 0 2.5H7.9a5 5 0 0 1-5-5V6a5 5 0 0 1 5-5h11.25a5 5 0 0 1 5 5v15a1.25 1.25 0 0 1-2.5 0v-2.5zm0-10V6a2.5 2.5 0 0 0-2.5-2.5H7.9A2.5 2.5 0 0 0 5.4 6v2.5h16.25zM17.9 22.25a1.25 1.25 0 1 1 0-2.5 1.25 1.25 0 0 1 0 2.5zM9.15 4.75h2.5a1.25 1.25 0 1 1 0 2.5h-2.5a1.25 1.25 0 0 1 0-2.5zm0 7.5h2.5a1.25 1.25 0 0 1 0 2.5h-2.5a1.25 1.25 0 0 1 0-2.5z" fill="#fff"/>
</svg>
