<?xml version="1.0" standalone="no"?><!DOCTYPE svg PUBLIC "-//W3C//DTD SVG 1.1//EN" "http://www.w3.org/Graphics/SVG/1.1/DTD/svg11.dtd"><svg t="1661409511224" class="icon" viewBox="0 0 1024 1024" version="1.1" xmlns="http://www.w3.org/2000/svg" p-id="5084" width="48" height="48" xmlns:xlink="http://www.w3.org/1999/xlink"><defs><style type="text/css">@font-face { font-family: feedback-iconfont; src: url("//at.alicdn.com/t/font_1031158_u69w8yhxdu.woff2?t=1630033759944") format("woff2"), url("//at.alicdn.com/t/font_1031158_u69w8yhxdu.woff?t=1630033759944") format("woff"), url("//at.alicdn.com/t/font_1031158_u69w8yhxdu.ttf?t=1630033759944") format("truetype"); }
</style></defs><path d="M44.100267 534.357333v-0.034133a33.655467 33.655467 0 0 1 0-47.854933v-0.068267l239.342933-239.138133a33.826133 33.826133 0 1 1 47.889067 47.854933l-215.415467 215.278933 215.415467 215.278934a33.792 33.792 0 0 1 0.068266 47.889066 34.065067 34.065067 0 0 1-47.957333-0.034133l-239.3088-239.138133-0.034133-0.034134z m534.528-427.008a34.133333 34.133333 0 1 1 65.9456 17.646934l-211.968 791.074133a34.133333 34.133333 0 1 1-65.9456-17.646933l211.968-791.074134z m401.271466 427.008l-239.342933 239.172267a34.065067 34.065067 0 0 1-47.957333 0.034133 33.792 33.792 0 0 1 0.068266-47.889066l215.415467-215.278934-215.415467-215.278933a33.826133 33.826133 0 1 1 47.889067-47.854933l239.3088 239.138133 0.034133 0.034133v0.034134a33.655467 33.655467 0 0 1 0 47.854933z" fill="#515151" p-id="5085"></path></svg>