<svg width="16" height="16" viewBox="0 0 16 16" fill="current" xmlns="http://www.w3.org/2000/svg">
    <path d="M11.05 12.41H3.927a3.93 3.93 0 0 1-1.933-7.349v-.143a4.926 4.926 0 0 1 9.397-2.06 4.78 4.78 0 0 1-.34 9.552zM6.91 1.584a3.34 3.34 0 0 0-3.327 3.334c.003.17.018.339.045.506l.099.637-.609.226a2.337 2.337 0 0 0 .81 4.531h7.122a3.185 3.185 0 1 0 0-6.368h-.08l-.69.035-.188-.58A3.324 3.324 0 0 0 6.92 1.584h-.01zM4.89 13.843h6.05c.532 0 .797.265.797.796 0 .53-.265.796-.796.796H4.89c-.53 0-.796-.265-.796-.796 0-.53.265-.796.796-.796z" />
</svg>
