<svg width="14" height="10" viewBox="0 0 14 10" fill="current" xmlns="http://www.w3.org/2000/svg">
    <path d="M9.341 0H8.282a.127.127 0 0 0-.12.078L4.532 9.846a.101.101 0 0 0-.006.038c0 .064.056.116.125.116h1.064a.127.127 0 0 0 .12-.079l.01-.03L9.347.467l.116-.311A.101.101 0 0 0 9.47.118.123.123 0 0 0 9.34 0zm4.605 4.847a.259.259 0 0 0-.042-.04l-3.437-2.49a.132.132 0 0 0-.176.02.11.11 0 0 0-.027.072V3.59c0 .036.018.07.049.091l1.805 1.309-1.805 1.308a.114.114 0 0 0-.049.091v1.182c0 .064.057.117.126.117a.13.13 0 0 0 .077-.025l3.437-2.49a.222.222 0 0 0 .042-.327zM3.533 2.317.095 4.807a.223.223 0 0 0 0 .366l3.438 2.49a.13.13 0 0 0 .077.026c.069 0 .125-.053.125-.117V6.39a.11.11 0 0 0-.049-.091L1.882 4.99l1.804-1.309a.114.114 0 0 0 .05-.091V2.409a.11.11 0 0 0-.028-.071.132.132 0 0 0-.175-.02z"/>
</svg>
