<svg width="22" height="22" viewBox="0 0 22 22" fill="none" xmlns="http://www.w3.org/2000/svg">
    <path d="M11 22C4.925 22 0 17.075 0 11S4.925 0 11 0s11 4.925 11 11-4.925 11-11 11zm0-1.65A9.35 9.35 0 0 0 20.35 11 9.35 9.35 0 0 0 11 1.65 9.35 9.35 0 0 0 1.65 11 9.35 9.35 0 0 0 11 20.35zm.825-10.175h3.3a.825.825 0 0 1 0 1.65h-3.3v3.3a.825.825 0 0 1-1.65 0v-3.3h-3.3a.825.825 0 1 1 0-1.65h3.3v-3.3a.825.825 0 1 1 1.65 0v3.3z" fill="#2E4D88"/>
    <rect x="-189.5" y="-11.5" width="591" height="45" rx="7.5" stroke="#ABB4C4" stroke-dasharray="4 4"/>
</svg>
