<svg width="19" height="19" viewBox="0 0 19 19" fill="none" xmlns="http://www.w3.org/2000/svg">
    <path d="M7.965 6.712v.7h-1.52v5.138h5.56V9.864h.695v2.685a.703.703 0 0 1-.204.496.692.692 0 0 1-.491.205h-5.56a.692.692 0 0 1-.491-.205.703.703 0 0 1-.204-.495V7.413c0-.186.073-.364.204-.496a.692.692 0 0 1 .491-.205h1.52zm3.647-.962L13.25 7.4l-1.72 1.734-.491-.495.753-.76h-.83a2.441 2.441 0 0 0-2.431 2.386l-.001.066v.934h-.695v-.934c0-1.74 1.4-3.152 3.128-3.152h1.084l-.927-.934.492-.495z" fill="#000"/>
    <path d="M1.25 9.5a8.25 8.25 0 1 0 16.5 0 8.25 8.25 0 0 0-16.5 0z" stroke="#262626" stroke-width="1.5"/>
</svg>
