<svg width="21" height="9" viewBox="0 0 21 9" fill="current" xmlns="http://www.w3.org/2000/svg">
    <path d="M16.406 0c-1.278 0-2.464.572-3.51 1.274-.816.55-1.623 1.234-2.396 1.919-.773-.688-1.58-1.372-2.396-1.919C7.058.569 5.872 0 4.594 0 2.08 0 0 2.04 0 4.5S2.083 9 4.594 9c1.278 0 2.464-.572 3.51-1.274.816-.55 1.623-1.234 2.396-1.919.773.688 1.58 1.372 2.396 1.919C13.942 8.431 15.128 9 16.406 9 18.921 9 21 6.96 21 4.5S18.92 0 16.406 0zM6.99 6.136c-.922.62-1.707.936-2.396.936-1.425 0-2.626-1.176-2.626-2.572 0-1.396 1.2-2.572 2.626-2.572.689 0 1.47.313 2.396.936.667.45 1.344 1.016 2.048 1.636-.704.62-1.381 1.186-2.048 1.636zm9.416.936c-.689 0-1.47-.313-2.396-.936-.667-.45-1.344-1.016-2.048-1.636.704-.62 1.381-1.186 2.048-1.636.922-.62 1.707-.936 2.396-.936 1.425 0 2.626 1.176 2.626 2.572 0 1.396-1.2 2.572-2.626 2.572z"/>
</svg>
