<svg width="12" height="12" viewBox="0 0 12 12" fill="none" xmlns="http://www.w3.org/2000/svg">
    <path d="M11.48 12.002H.52A.52.52 0 0 1 0 11.48V.521a.52.52 0 0 1 .52-.52h4.542a.52.52 0 1 1 0 1.041H1.04v9.918h9.918V6.963a.52.52 0 1 1 1.041 0v4.518a.52.52 0 0 1-.52.52z" fill="#1B51B9"/>
    <path d="M11.999.486V.479a.556.556 0 0 0-.01-.071c0-.002 0-.003-.002-.005a.573.573 0 0 0-.022-.07V.33a.56.56 0 0 0-.031-.066c0-.002-.002-.002-.002-.003a.509.509 0 0 0-.039-.06L11.89.197l-.02-.025c0-.001-.002-.001-.002-.003a.177.177 0 0 0-.023-.023L11.838.14 11.815.12l-.001-.002a.195.195 0 0 0-.028-.02c-.001-.002-.004-.003-.006-.004a.541.541 0 0 0-.062-.038l-.001-.002a.426.426 0 0 0-.143-.046l-.005-.001L11.535 0h-.005L11.501 0H7.838a.52.52 0 1 0 0 1.041h2.385l-4.59 4.592a.52.52 0 0 0 .369.887c.133 0 .266-.05.368-.151l4.59-4.59v2.353a.52.52 0 1 0 1.04 0V.522L12 .486z" fill="#1B51B9"/>
</svg>
