<svg width="13" height="12" viewBox="0 0 13 12" fill="none" xmlns="http://www.w3.org/2000/svg">
    <g clip-path="url(#l9u1f2c4sa)">
        <path d="m12.633 6.52-4.57 4.572a.677.677 0 0 1-.906.046l4.522-4.522a.812.812 0 0 0 0-1.149L6.295.083h.578a.673.673 0 0 1 .48.199l5.28 5.28a.678.678 0 0 1 0 .958zm-1.625 0-4.57 4.572a.678.678 0 0 1-.958 0L.198 5.81A.673.673 0 0 1 0 5.33V.762A.678.678 0 0 1 .677.082h4.571a.673.673 0 0 1 .48.199l5.28 5.28a.678.678 0 0 1 0 .958zM4.333 3.333a1.083 1.083 0 1 0-2.166 0 1.083 1.083 0 0 0 2.166 0z" fill="#8B85E3"/>
    </g>
    <defs>
        <clipPath id="l9u1f2c4sa">
            <path fill="#fff" transform="translate(0 -1)" d="M0 0h13v13H0z"/>
        </clipPath>
    </defs>
</svg>
