<svg width="15" height="9" viewBox="0 0 15 9" fill="none" xmlns="http://www.w3.org/2000/svg">
    <g filter="url(#w8si0jqsxa)">
        <rect x="-43" y="-174" width="369" height="314" rx="8" fill="#fff" shape-rendering="crispEdges"/>
        <path d="M7.497 6.738c-.035 0-.07 0-.105-.004l-.105-.006a1.122 1.122 0 0 1-.104-.014l-.105-.02c-.035-.006-.07-.016-.102-.023l-.101-.03c-.035-.01-.067-.023-.099-.033-.031-.014-.066-.027-.098-.04-.032-.013-.064-.03-.095-.043l-.095-.05c-.032-.017-.06-.037-.093-.054-.031-.016-.06-.04-.088-.06-.029-.02-.058-.04-.086-.063-.029-.023-.057-.043-.083-.066a.848.848 0 0 1-.079-.073l-.076-.077c-.026-.027-.048-.053-.073-.08l-.07-.083c-.022-.03-.044-.057-.063-.086a1.478 1.478 0 0 1-.06-.09c-.02-.03-.039-.064-.058-.093a.911.911 0 0 1-.05-.097l-.048-.1a1.325 1.325 0 0 1-.042-.1l-.038-.103c-.012-.033-.022-.07-.031-.103l-.029-.106a1.271 1.271 0 0 1-.022-.107l-.02-.11a1.294 1.294 0 0 1-.012-.11 1.27 1.27 0 0 1-.006-.11c-.003-.036-.003-.072-.003-.109 0-.037 0-.073.003-.11.003-.036.003-.073.006-.11.003-.036.006-.073.013-.11l.019-.11c.006-.036.016-.072.022-.106l.029-.106c.01-.037.022-.07.031-.103l.038-.103c.013-.034.029-.067.042-.1l.047-.1c.016-.033.035-.063.051-.097.02-.03.038-.063.057-.093.02-.03.038-.06.06-.09.023-.03.042-.06.064-.086a.863.863 0 0 1 .07-.083c.022-.027.047-.053.073-.08.025-.027.05-.05.076-.077l.08-.073c.028-.023.053-.046.082-.066.028-.024.057-.044.086-.064l.088-.06c.029-.02.06-.036.093-.053l.095-.05c.031-.016.063-.03.095-.043.032-.013.067-.026.098-.04.032-.013.067-.023.099-.033l.101-.03c.035-.01.067-.017.102-.023l.105-.02c.035-.007.07-.01.104-.014.035-.003.07-.006.105-.006.035-.003.07-.003.105-.003.035 0 .07 0 .105.003.034.003.07.003.104.006.035.004.07.007.105.014l.105.02c.035.006.07.016.101.023l.102.03c.035.01.067.023.098.033l.099.04c.031.013.063.03.095.043l.095.05c.032.017.06.037.092.054l.089.06c.029.02.057.04.086.063.028.023.057.043.082.066a.847.847 0 0 1 .08.073l.076.077c.025.027.047.053.073.08l.07.083c.022.03.044.057.063.086.022.03.041.06.06.09.02.03.038.064.058.093a.91.91 0 0 1 .05.097l.048.1c.016.033.028.066.041.1l.038.103c.013.033.022.07.032.103l.029.106c.01.037.015.07.022.107l.019.11c.006.036.01.073.013.11.003.036.006.073.006.11.003.036.003.072.003.109 0 .037 0 .073-.003.11-.003.036-.003.073-.006.11a1.29 1.29 0 0 1-.013.11l-.02.11c-.006.036-.015.072-.021.106l-.029.106c-.01.037-.022.07-.032.103l-.038.103-.041.1-.048.1c-.016.033-.035.063-.05.097-.02.03-.039.063-.058.093-.019.03-.038.06-.06.09s-.041.06-.063.086a.863.863 0 0 1-.07.083c-.022.027-.048.053-.073.08-.026.027-.051.05-.076.077l-.08.073c-.028.023-.054.046-.082.066a1.41 1.41 0 0 1-.086.064l-.089.06c-.028.02-.06.036-.092.053l-.095.05a3.152 3.152 0 0 1-.194.083c-.031.013-.066.023-.098.033l-.102.03c-.035.01-.066.017-.101.023l-.105.02c-.035.007-.07.01-.105.014-.035.003-.07.006-.104.006-.035.004-.07.004-.105.004zm7.497-3.368h-3.346a4.469 4.469 0 0 0-.387-1.028 4.99 4.99 0 0 0-.18-.316 3.803 3.803 0 0 0-.207-.3 3.793 3.793 0 0 0-.48-.542 4.704 4.704 0 0 0-.27-.24 4.77 4.77 0 0 0-.593-.403A4.11 4.11 0 0 0 7.85.018 4.16 4.16 0 0 0 7.497 0a4.16 4.16 0 0 0-2.34.732c-.098.067-.193.14-.288.213a4.721 4.721 0 0 0-.52.499c-.08.09-.156.183-.23.283a3.798 3.798 0 0 0-.206.3 4.483 4.483 0 0 0-.336.649 4.443 4.443 0 0 0-.232.694H0v2.246h3.349a4.524 4.524 0 0 0 .568 1.35c.063.104.133.204.206.3.073.097.15.19.228.283a4.727 4.727 0 0 0 .52.502c.093.077.191.147.29.217a4.108 4.108 0 0 0 1.987.715c.117.01.235.017.352.017a4.157 4.157 0 0 0 2.34-.732 4.385 4.385 0 0 0 1.243-1.3 4.492 4.492 0 0 0 .466-.995c.039-.117.074-.237.103-.357H15V3.37h-.006z" fill="#606479"/>
        <rect x="-43.5" y="-174.5" width="370" height="315" rx="8.5" stroke="#C9D5EB" shape-rendering="crispEdges"/>
    </g>
    <defs>
        <filter id="w8si0jqsxa" x="-52" y="-179" width="387" height="332" filterUnits="userSpaceOnUse" color-interpolation-filters="sRGB">
            <feFlood flood-opacity="0" result="BackgroundImageFix"/>
            <feColorMatrix in="SourceAlpha" values="0 0 0 0 0 0 0 0 0 0 0 0 0 0 0 0 0 0 127 0" result="hardAlpha"/>
            <feOffset dy="4"/>
            <feGaussianBlur stdDeviation="4"/>
            <feComposite in2="hardAlpha" operator="out"/>
            <feColorMatrix values="0 0 0 0 0.12549 0 0 0 0 0.176471 0 0 0 0 0.25098 0 0 0 0.05 0"/>
            <feBlend in2="BackgroundImageFix" result="effect1_dropShadow_1_846"/>
            <feBlend in="SourceGraphic" in2="effect1_dropShadow_1_846" result="shape"/>
        </filter>
    </defs>
</svg>
