<svg width="10" height="10" viewBox="0 0 10 10" fill="current" xmlns="http://www.w3.org/2000/svg">
    <path d="M9.566 10.002H.434A.433.433 0 0 1 0 9.568V.435C0 .195.194.001.434.001h3.784a.433.433 0 1 1 0 .868H.868v8.265h8.265V5.803a.433.433 0 1 1 .867 0v3.765c0 .24-.194.434-.434.434z" />
    <path d="M9.999.405V.399a.464.464 0 0 0-.009-.06V.337A.48.48 0 0 0 9.97.277V.276A.467.467 0 0 0 9.945.22s-.002 0-.002-.002a.435.435 0 0 0-.032-.05L9.907.165 9.89.144V.14a.146.146 0 0 0-.02-.02L9.865.118l-.02-.018V.098L9.822.08 9.817.077a.456.456 0 0 0-.052-.031L9.764.045a.357.357 0 0 0-.12-.039L9.642.005 9.612 0h-.004L9.584 0H6.531a.433.433 0 1 0 0 .867H8.52L4.694 4.694a.433.433 0 0 0 .307.74c.111 0 .222-.042.307-.127l3.824-3.825v1.961a.433.433 0 1 0 .868 0V.435l-.001-.03z" />
</svg>
