<svg width="11" height="9" viewBox="0 0 11 9" fill="none" xmlns="http://www.w3.org/2000/svg">
    <path d="M.21 0h2.954c.14 0 .211.07.211.21v2.954c0 .14-.07.211-.21.211H.21c-.14 0-.211-.07-.211-.21V.21C0 .07.07 0 .21 0zM8.056.025C8.026 0 7.966 0 7.906 0c-.061 0-.122 0-.152.025-.06.026-.09.077-.12.102L5.67 3.02a.2.2 0 0 0 0 .253c.03.051.06.051.121.077.06.025.09.025.151.025h3.866c.06 0 .12 0 .15-.025.061-.026.091-.051.122-.077a.2.2 0 0 0 0-.253L8.177.127c-.03-.025-.06-.076-.12-.102zM4.489 6.25a.228.228 0 0 0-.181-.162L3.025 5.85 2.45 4.632A.223.223 0 0 0 2.25 4.5a.225.225 0 0 0-.202.132L1.475 5.85l-1.283.247a.228.228 0 0 0-.18.161.246.246 0 0 0 .056.244l.928.905-.243 1.315c-.014.088.02.18.09.232.067.07.204.036.237.018l1.17-.603 1.163.603c.032.018.162.06.236-.018a.243.243 0 0 0 .09-.232l-.235-1.315.928-.914a.245.245 0 0 0 .057-.243zM7.64 4.58l-1.85 1.4a.429.429 0 0 0-.145.467L6.35 8.71c.053.172.207.289.381.289h2.285a.403.403 0 0 0 .382-.29l.706-2.263a.427.427 0 0 0-.146-.468L8.111 4.58a.388.388 0 0 0-.472 0z" fill="#8B85E3"/>
</svg>
