<svg width="14" height="13" viewBox="0 0 14 13" fill="none" xmlns="http://www.w3.org/2000/svg">
    <path d="M0 6.113h.859c.229 0 .414-.022.554-.064.14-.043.279-.122.414-.239l.25-.255c.104-.106.213-.228.328-.366l.351-.421.336-.406c.208-.266.396-.37.562-.31.167.058.292.182.375.373l.687 1.926c.354-1.008.666-1.92.937-2.738.115-.35.23-.692.344-1.026.114-.335.218-.642.312-.924l.234-.7c.063-.186.1-.305.11-.358.052-.18.13-.326.234-.438A.464.464 0 0 1 7.23 0a.88.88 0 0 1 .422.12c.146.079.24.24.281.485.01.064.031.233.063.51.03.275.072.62.124 1.034.053.414.107.873.164 1.377.058.504.118 1.016.18 1.536.135 1.22.292 2.584.469 4.091l.624-2.085c.073-.266.149-.528.227-.788.078-.26.15-.499.218-.717.068-.217.123-.4.164-.549.042-.148.073-.244.094-.286.052-.17.114-.297.187-.382a.561.561 0 0 1 .297-.175c.24-.064.42-.03.539.103.12.133.18.268.18.406 0 .117-.011.218-.032.302a.472.472 0 0 0-.015.112l.562 1.56a.481.481 0 0 0 .047-.064c.03-.053.083-.164.156-.334a.64.64 0 0 1 .414-.358c.192-.059.377-.083.554-.072.115.01.229.016.344.016h.718v1.21c-.063.01-.125.016-.188.016h-.406a.601.601 0 0 0-.406.12.977.977 0 0 0-.265.262c-.042.085-.115.25-.219.493a9.18 9.18 0 0 0-.28.748c-.042.128-.11.213-.204.255a.612.612 0 0 1-.57-.032.416.416 0 0 1-.18-.19 63.858 63.858 0 0 1-.375-.955 16.958 16.958 0 0 1-.28-.717c-.271.88-.516 1.692-.734 2.435-.094.319-.188.632-.281.94a231.774 231.774 0 0 0-.453 1.512c-.052.18-.083.302-.094.366a1.177 1.177 0 0 1-.297.605.665.665 0 0 1-.53.207c-.22-.022-.375-.117-.47-.287a1.493 1.493 0 0 1-.17-.589c0-.053-.014-.217-.04-.493l-.101-1.05c-.042-.425-.086-.898-.133-1.418a264.7 264.7 0 0 0-.148-1.591 459.56 459.56 0 0 0-.406-4.235c-.292.87-.552 1.65-.781 2.34-.094.297-.19.59-.29.876a86.36 86.36 0 0 0-.46 1.369l-.094.286a1.513 1.513 0 0 1-.21.382c-.089.117-.227.17-.414.16-.188 0-.328-.067-.422-.2a1.585 1.585 0 0 1-.219-.453c-.03-.085-.088-.25-.171-.494a33.54 33.54 0 0 0-.266-.748 30.623 30.623 0 0 1-.359-.987 5.66 5.66 0 0 1-.234.287c-.073.085-.151.178-.234.278a14.5 14.5 0 0 1-.25.295c-.167.201-.323.34-.469.414a.902.902 0 0 1-.515.08 3.273 3.273 0 0 0-.414-.009c-.172.006-.346.008-.523.008-.198.01-.417.016-.656.016V6.113z" fill="#9EEA91"/>
</svg>
