<svg width="13" height="13" viewBox="0 0 13 13" fill="none" xmlns="http://www.w3.org/2000/svg">
    <g filter="url(#v38a4rmnpa)">
        <path fill="#fff" d="M0 0h13v13H0z"/>
    </g>
    <path d="M8.524 3.86a.21.21 0 0 1-.16-.075.67.67 0 0 1-.114-.175 1.007 1.007 0 0 1-.092-.38V2h.019c.049 0 .099.007.15.02a.584.584 0 0 1 .184.095c.07.05.155.12.256.21.1.09.227.208.38.355.164.16.293.295.388.405.094.11.168.203.22.28a.618.618 0 0 1 .096.195.64.64 0 0 1 .018.14v.16H8.524zM6.412 9.5c0 .38.07.733.21 1.06.14.326.332.606.576.84H4.18a.815.815 0 0 1-.38-.11 1.63 1.63 0 0 1-.681-.705A1.062 1.062 0 0 1 3 10.098V3.29c0-.14.03-.286.091-.44a1.57 1.57 0 0 1 .243-.414c.1-.123.215-.227.343-.31A.727.727 0 0 1 4.079 2h3.494v1.25c0 .127.018.263.055.41.037.147.094.282.174.405.079.123.18.227.302.31a.743.743 0 0 0 .43.125h1.335v2.78a2.106 2.106 0 0 0-1.134-.33c-.44 0-.837.118-1.194.355a2.452 2.452 0 0 0-.837.945H4.72a.532.532 0 0 0-.407.185.636.636 0 0 0-.169.445c0 .173.057.32.17.44.112.12.248.18.406.18h1.693zM4.719 5.75a.539.539 0 0 0-.407.18.618.618 0 0 0-.169.44c0 .173.057.321.17.445A.532.532 0 0 0 4.718 7h3.43a.532.532 0 0 0 .407-.185.636.636 0 0 0 .17-.445.618.618 0 0 0-.17-.44.539.539 0 0 0-.407-.18H4.72zm6.138 5.6a.645.645 0 0 1 .141.284c.01.077-.02.155-.086.235-.074.094-.153.137-.238.13a.45.45 0 0 1-.256-.12l-.778-.82a1.686 1.686 0 0 1-.535.245c-.192.05-.383.067-.572.05a1.542 1.542 0 0 1-1.043-.535 1.852 1.852 0 0 1-.374-.62 2.011 2.011 0 0 1 .375-2.04c.164-.18.35-.316.558-.41a1.544 1.544 0 0 1 1.285 0c.21.094.398.23.562.41.147.167.26.35.339.55.079.2.126.406.141.616.016.21 0 .418-.045.624-.046.207-.12.4-.224.58l.75.82zm-2.159-.62a.952.952 0 0 0 .43-.1 1.19 1.19 0 0 0 .59-.656c.058-.15.087-.311.087-.485a1.307 1.307 0 0 0-.325-.87 1.088 1.088 0 0 0-.352-.264.994.994 0 0 0-.43-.095c-.158 0-.305.031-.439.095a1.088 1.088 0 0 0-.352.265 1.307 1.307 0 0 0-.325.87c0 .173.03.334.087.484a1.19 1.19 0 0 0 .59.655c.134.067.28.1.44.1z" fill="#6C727B"/>
    <defs>
        <filter id="v38a4rmnpa" x="-4" y="-2" width="21" height="21" filterUnits="userSpaceOnUse" color-interpolation-filters="sRGB">
            <feFlood flood-opacity="0" result="BackgroundImageFix"/>
            <feColorMatrix in="SourceAlpha" values="0 0 0 0 0 0 0 0 0 0 0 0 0 0 0 0 0 0 127 0" result="hardAlpha"/>
            <feOffset dy="2"/>
            <feGaussianBlur stdDeviation="2"/>
            <feComposite in2="hardAlpha" operator="out"/>
            <feColorMatrix values="0 0 0 0 0.886275 0 0 0 0 0.894118 0 0 0 0 0.960784 0 0 0 0.8 0"/>
            <feBlend in2="BackgroundImageFix" result="effect1_dropShadow_59_6661"/>
            <feBlend in="SourceGraphic" in2="effect1_dropShadow_59_6661" result="shape"/>
        </filter>
    </defs>
</svg>
