<svg width="13" height="13" viewBox="0 0 13 13" fill="none" xmlns="http://www.w3.org/2000/svg">
    <g filter="url(#lpewe98ika)">
        <path fill="#fff" d="M0 0h13v13H0z"/>
    </g>
    <path d="M4.257 6.562c0 1.21.242 2.37.675 3.225.432.855 1.019 1.336 1.63 1.336.612 0 1.198-.48 1.63-1.336.433-.855.676-2.016.676-3.225 0-1.21-.243-2.37-.676-3.226C7.76 2.481 7.174 2 6.562 2c-.611 0-1.198.48-1.63 1.336-.433.855-.675 2.016-.675 3.226z" fill="#919DAE"/>
    <path d="M6.562 2.652c1.574 0 2.93.937 3.55 2.28h.707A4.56 4.56 0 0 0 6.562 2a4.559 4.559 0 0 0-4.256 2.932h.707a3.912 3.912 0 0 1 3.55-2.28zm0 7.82a3.912 3.912 0 0 1-3.55-2.281h-.707a4.56 4.56 0 0 0 4.257 2.932c1.945 0 3.6-1.219 4.257-2.932h-.707a3.912 3.912 0 0 1-3.55 2.28z" fill="#6C727B"/>
    <path d="M6.562 2.652c.519 0 1.192.838 1.495 2.28h.658C8.383 3.22 7.545 2 6.562 2 5.578 2 4.74 3.219 4.408 4.932h.658c.303-1.442.976-2.28 1.496-2.28zm0 7.82c-.52 0-1.193-.839-1.496-2.281h-.658c.332 1.713 1.17 2.932 2.154 2.932s1.821-1.219 2.153-2.932h-.658c-.303 1.442-.976 2.28-1.495 2.28zM2 5.776h.582l.252.99.318-.99h.544l.333.992.253-.992h.578l-.578 1.571h-.536l-.318-.945-.308.945h-.537L2 5.777zm3.131 0h.582l.252.99.319-.99h.543l.333.992.253-.992h.578l-.578 1.571h-.536l-.318-.945-.308.945h-.538l-.582-1.57zm3.132 0h.582l.251.99.32-.99h.543l.332.992.254-.992h.578l-.578 1.571h-.536l-.319-.945-.307.945h-.538l-.582-1.57z" fill="#6C727B"/>
    <defs>
        <filter id="lpewe98ika" x="-4" y="-2" width="21" height="21" filterUnits="userSpaceOnUse" color-interpolation-filters="sRGB">
            <feFlood flood-opacity="0" result="BackgroundImageFix"/>
            <feColorMatrix in="SourceAlpha" values="0 0 0 0 0 0 0 0 0 0 0 0 0 0 0 0 0 0 127 0" result="hardAlpha"/>
            <feOffset dy="2"/>
            <feGaussianBlur stdDeviation="2"/>
            <feComposite in2="hardAlpha" operator="out"/>
            <feColorMatrix values="0 0 0 0 0.886275 0 0 0 0 0.894118 0 0 0 0 0.960784 0 0 0 0.8 0"/>
            <feBlend in2="BackgroundImageFix" result="effect1_dropShadow_59_6661"/>
            <feBlend in="SourceGraphic" in2="effect1_dropShadow_59_6661" result="shape"/>
        </filter>
    </defs>
</svg>
